<svg width="375" height="424" viewBox="0 0 375 424" fill="none" xmlns="http://www.w3.org/2000/svg">
<g clip-path="url(#clip0)">
<g opacity="0.2">
<path opacity="0.2" d="M278.553 386.726C278.216 387.355 277.827 387.954 277.39 388.519C273.526 385.801 269.596 383.133 265.599 380.514L265.858 380.001C266.783 378.215 268.167 376.707 269.868 375.632C272.074 374.275 274.561 373.978 276.607 375.081C278.653 376.184 279.794 378.391 279.915 380.967C279.978 382.973 279.508 384.96 278.553 386.726Z" fill="#3F3D56"/>
<path opacity="0.2" d="M283.935 376.626C286.366 372.036 285.496 366.809 281.992 364.952C278.487 363.096 273.676 365.312 271.245 369.902C268.815 374.492 269.685 379.719 273.189 381.575C276.693 383.432 281.505 381.216 283.935 376.626Z" fill="#3F3D56"/>
<path opacity="0.2" d="M289.315 366.468C291.746 361.878 290.875 356.652 287.371 354.795C283.867 352.938 279.056 355.154 276.625 359.744C274.194 364.335 275.065 369.561 278.569 371.418C282.073 373.275 286.884 371.059 289.315 366.468Z" fill="#3F3D56"/>
<path opacity="0.2" d="M294.695 356.311C297.125 351.721 296.255 346.494 292.751 344.637C289.247 342.781 284.435 344.997 282.005 349.587C279.574 354.177 280.444 359.404 283.949 361.26C287.453 363.117 292.264 360.901 294.695 356.311Z" fill="#3F3D56"/>
<path opacity="0.2" d="M300.069 346.159C302.5 341.569 301.629 336.342 298.125 334.485C294.621 332.629 289.81 334.845 287.379 339.435C284.948 344.025 285.818 349.252 289.323 351.108C292.827 352.965 297.638 350.749 300.069 346.159Z" fill="#3F3D56"/>
<path opacity="0.2" d="M306.755 260.677C306.461 259.114 306.277 257.532 306.204 255.944L324.358 262.056L306.254 252.634C306.516 247.952 307.732 243.373 309.826 239.178C311.919 234.982 314.847 231.259 318.43 228.235L335.972 253.61L322.351 225.388C326.354 222.882 330.83 221.227 335.501 220.527C340.171 219.827 344.935 220.096 349.497 221.318C354.059 222.541 358.32 224.689 362.015 227.631C365.711 230.572 368.761 234.243 370.976 238.415C373.191 242.587 374.523 247.171 374.89 251.881C375.257 256.59 374.65 261.325 373.108 265.79C371.565 270.255 369.12 274.354 365.925 277.833C362.73 281.311 358.852 284.094 354.535 286.008C354.984 288.443 355.169 290.919 355.086 293.394L327.513 293.174L354.689 297.653C353.771 303.298 351.46 308.625 347.965 313.152C344.471 317.679 339.904 321.263 334.676 323.58C335.828 329.933 335.169 336.482 332.775 342.478C330.382 348.474 326.349 353.675 321.14 357.487C315.93 361.299 309.754 363.568 303.316 364.034C296.878 364.5 290.439 363.145 284.735 360.123C279.031 357.101 274.292 352.535 271.06 346.946C267.828 341.357 266.234 334.971 266.459 328.519C266.684 322.066 268.719 315.807 272.332 310.457C275.946 305.107 280.991 300.882 286.891 298.265C285.517 290.674 286.733 282.84 290.343 276.023C293.953 269.205 299.749 263.799 306.8 260.671L306.755 260.677Z" fill="#FF962B"/>
<path opacity="0.1" d="M351.088 308.233C347.487 315.058 341.689 320.467 334.632 323.585C335.784 329.938 335.125 336.487 332.731 342.483C330.337 348.479 326.305 353.681 321.096 357.493C315.886 361.304 309.709 363.573 303.272 364.039C296.834 364.505 290.395 363.15 284.691 360.128C278.987 357.106 274.248 352.54 271.016 346.951C267.784 341.363 266.19 334.977 266.414 328.524C266.639 322.072 268.675 315.813 272.288 310.463C275.901 305.113 280.947 300.888 286.847 298.271C285.513 290.939 352.897 304.819 351.088 308.233Z" fill="black"/>
</g>
<g opacity="0.2">
<path opacity="0.2" d="M119.669 342.964C119.996 344.296 120.437 345.597 120.987 346.854C129.483 343.599 138.077 340.473 146.768 337.476C146.691 337.123 146.614 336.759 146.526 336.372C145.643 332.6 143.772 329.131 141.105 326.322C137.636 322.747 133.136 321.004 128.807 322.063C124.478 323.122 121.29 326.735 119.851 331.49C118.768 335.23 118.705 339.192 119.669 342.964Z" fill="#3F3D56"/>
<path opacity="0.2" d="M132.162 335.74C139.58 333.928 143.671 324.588 141.301 314.877C138.931 305.166 130.997 298.762 123.579 300.574C116.161 302.386 112.07 311.726 114.44 321.437C116.81 331.148 124.744 337.551 132.162 335.74Z" fill="#3F3D56"/>
<path opacity="0.2" d="M126.911 314.246C134.329 312.435 138.421 303.094 136.051 293.384C133.681 283.673 125.746 277.269 118.328 279.081C110.911 280.892 106.819 290.233 109.189 299.944C111.559 309.654 119.494 316.058 126.911 314.246Z" fill="#3F3D56"/>
<path opacity="0.2" d="M121.667 292.753C129.085 290.942 133.177 281.601 130.807 271.89C128.436 262.179 120.502 255.776 113.084 257.587C105.667 259.399 101.575 268.74 103.945 278.45C106.315 288.161 114.249 294.565 121.667 292.753Z" fill="#3F3D56"/>
<path opacity="0.2" d="M116.423 271.265C123.841 269.454 127.933 260.113 125.563 250.402C123.193 240.692 115.258 234.288 107.84 236.1C100.423 237.911 96.3308 247.252 98.7008 256.963C101.071 266.673 109.005 273.077 116.423 271.265Z" fill="#3F3D56"/>
<path opacity="0.2" d="M126.496 94.3577C127.763 91.5749 128.834 88.7067 129.7 85.7742L92.9999 88.5931L131.25 79.5407C132.968 70.6763 132.86 61.5544 130.932 52.7332C129.004 43.9121 125.298 35.5771 120.039 28.2384L75.3032 67.3275L114.05 21.0836C107.759 14.5247 100.186 9.33115 91.8023 5.82612C83.4185 2.32109 74.4033 0.579623 65.3178 0.710103C56.2322 0.840583 47.2707 2.84022 38.991 6.58456C30.7113 10.3289 23.2906 15.7378 17.1908 22.4746C11.091 29.2115 6.44257 37.132 3.53491 45.7434C0.627245 54.3548 -0.477453 63.4726 0.289549 72.5294C1.05655 81.5863 3.67884 90.3883 7.99322 98.3877C12.3076 106.387 18.2217 113.413 25.3675 119.027C23.3919 123.361 21.8923 127.896 20.8951 132.553L72.5073 145.175L19.6764 140.695C18.7162 151.678 20.5099 162.726 24.8951 172.84C29.2803 182.954 36.1185 191.814 44.7903 198.617C39.6429 209.931 37.7818 222.465 39.4198 234.786C41.0578 247.108 46.1289 258.719 54.0532 268.294C61.9776 277.868 72.4353 285.019 84.2309 288.929C96.0264 292.838 108.684 293.349 120.756 290.402C132.828 287.455 143.827 281.169 152.496 272.264C161.165 263.359 167.154 252.193 169.779 240.043C172.403 227.894 171.557 215.251 167.336 203.56C163.116 191.868 155.692 181.601 145.913 173.932C152.066 160.411 153.496 145.214 149.974 130.783C146.453 116.351 138.184 103.522 126.496 94.3577Z" fill="#FF962B"/>
<path opacity="0.1" d="M21.3197 162.176C24.8199 176.61 33.0902 189.439 44.7903 198.584C39.6429 209.898 37.7818 222.431 39.4198 234.753C41.0578 247.074 46.1289 258.686 54.0532 268.261C61.9776 277.835 72.4353 284.986 84.2309 288.895C96.0264 292.805 108.684 293.315 120.756 290.368C132.828 287.422 143.827 281.136 152.496 272.231C161.165 263.326 167.154 252.16 169.779 240.01C172.403 227.861 171.557 215.218 167.336 203.526C163.116 191.835 155.692 181.568 145.914 173.898C151.864 160.858 19.555 154.955 21.3197 162.176Z" fill="black"/>
</g>
<path d="M308.824 92.8462H307.594V26.5062C307.594 11.8768 295.555 0.0275879 280.704 0.0275879H130.081C115.23 0.0275879 103.191 11.8878 103.191 26.5062V54.0054H103.097H102.833C102.417 54.0024 102.017 54.1645 101.72 54.4561C101.423 54.7477 101.254 55.145 101.25 55.561V68.8003C101.254 69.2163 101.423 69.6136 101.72 69.9052C102.017 70.1968 102.417 70.3589 102.833 70.3559H103.125H103.219V83.8766H102.733C102.528 83.8751 102.324 83.9142 102.133 83.9916C101.943 84.069 101.769 84.1832 101.623 84.3276C101.476 84.4721 101.36 84.644 101.28 84.8335C101.2 85.023 101.158 85.2265 101.156 85.4322V110.747C101.159 111.163 101.327 111.561 101.622 111.853C101.918 112.146 102.318 112.309 102.733 112.308H103.219V122.237H102.8C102.594 122.235 102.389 122.274 102.198 122.351C102.007 122.428 101.832 122.542 101.685 122.687C101.538 122.831 101.421 123.003 101.341 123.193C101.26 123.383 101.218 123.587 101.217 123.793V149.356C101.218 149.562 101.26 149.766 101.341 149.956C101.421 150.146 101.538 150.318 101.685 150.463C101.832 150.607 102.007 150.721 102.198 150.798C102.389 150.875 102.594 150.914 102.8 150.912H103.219V382.809C103.219 397.439 115.257 409.288 130.108 409.288H280.699C295.55 409.288 307.588 397.428 307.588 382.809V142.461H308.824C309.239 142.463 309.64 142.301 309.936 142.01C310.233 141.718 310.402 141.321 310.406 140.905V94.4018C310.402 93.9858 310.233 93.5885 309.936 93.2969C309.64 93.0053 309.239 92.8433 308.824 92.8462Z" fill="url(#paint0_linear)"/>
<g opacity="0.9">
<path opacity="0.9" d="M306.43 94.4735H303.017C302.319 94.4735 301.754 95.0391 301.754 95.7368V142.207C301.754 142.904 302.319 143.47 303.017 143.47H306.43C307.128 143.47 307.693 142.904 307.693 142.207V95.7368C307.693 95.0391 307.128 94.4735 306.43 94.4735Z" fill="#E5E7EB"/>
<path opacity="0.9" d="M106.329 56.0906H105.518C104.821 56.0906 104.256 56.6561 104.256 57.3538V70.9572C104.256 71.6549 104.821 72.2205 105.518 72.2205H106.329C107.027 72.2205 107.592 71.6549 107.592 70.9572V57.3538C107.592 56.6561 107.027 56.0906 106.329 56.0906Z" fill="#E5E7EB"/>
<path opacity="0.9" d="M106.632 85.6198H105.397C104.7 85.6198 104.134 86.1853 104.134 86.883V112.429C104.134 113.127 104.7 113.693 105.397 113.693H106.632C107.33 113.693 107.895 113.127 107.895 112.429V86.883C107.895 86.1853 107.33 85.6198 106.632 85.6198Z" fill="#E5E7EB"/>
<path opacity="0.9" d="M106.511 123.517H105.458C104.76 123.517 104.195 124.083 104.195 124.781V150.57C104.195 151.267 104.76 151.833 105.458 151.833H106.511C107.209 151.833 107.774 151.267 107.774 150.57V124.781C107.774 124.083 107.209 123.517 106.511 123.517Z" fill="#E5E7EB"/>
<path opacity="0.9" d="M283.456 2.78577H127.643C115.768 2.78577 106.142 12.4154 106.142 24.2941V385.468C106.142 397.347 115.768 406.977 127.643 406.977H283.456C295.331 406.977 304.958 397.347 304.958 385.468V24.2941C304.958 12.4154 295.331 2.78577 283.456 2.78577Z" fill="white"/>
<path opacity="0.9" d="M212.007 14.8556H188.509C187.331 14.8556 186.375 15.8114 186.375 16.9904V18.3585C186.375 19.5375 187.331 20.4933 188.509 20.4933H212.007C213.186 20.4933 214.142 19.5375 214.142 18.3585V16.9904C214.142 15.8114 213.186 14.8556 212.007 14.8556Z" fill="#E5E7EB"/>
<path opacity="0.9" d="M221.531 20.874C223.298 20.874 224.73 19.4415 224.73 17.6745C224.73 15.9074 223.298 14.475 221.531 14.475C219.765 14.475 218.333 15.9074 218.333 17.6745C218.333 19.4415 219.765 20.874 221.531 20.874Z" fill="#E5E7EB"/>
</g>
<path d="M276.893 13.3165H254.134V16.0747C254.133 19.5236 252.762 22.8307 250.324 25.2689C247.885 27.7071 244.578 29.0768 241.131 29.0768H168.568C165.12 29.0768 161.814 27.7071 159.375 25.2689C156.937 22.8307 155.566 19.5236 155.564 16.0747V13.3165H134.211C130.024 13.3165 126.008 14.9805 123.047 17.9423C120.086 20.9041 118.423 24.9213 118.423 29.1099V380.658C118.423 384.847 120.086 388.864 123.047 391.825C126.008 394.787 130.024 396.451 134.211 396.451H276.893C281.081 396.451 285.097 394.787 288.058 391.825C291.019 388.864 292.682 384.847 292.682 380.658V29.1099C292.682 24.9213 291.019 20.9041 288.058 17.9423C285.097 14.9805 281.081 13.3165 276.893 13.3165Z" fill="#ECECF3"/>
<path d="M48.1214 421.021C65.5397 421.021 79.66 418.633 79.66 415.687C79.66 412.741 65.5397 410.353 48.1214 410.353C30.7031 410.353 16.5828 412.741 16.5828 415.687C16.5828 418.633 30.7031 421.021 48.1214 421.021Z" fill="#FF962B"/>
<path d="M61.1637 406.96C62.5148 405.702 63.7831 404.202 64.1692 402.42C64.5552 400.638 63.7942 398.454 62.0681 397.797C60.1379 397.058 58.0754 398.393 56.5148 399.745C54.9541 401.096 53.1563 402.641 51.1103 402.354C52.1672 401.398 52.9573 400.183 53.403 398.829C53.8487 397.475 53.9347 396.028 53.6526 394.631C53.5644 394.056 53.3203 393.516 52.9467 393.07C51.8769 391.922 49.9357 392.413 48.6508 393.318C44.5754 396.187 43.4339 401.73 43.4118 406.723C42.9982 404.919 43.3456 403.043 43.3346 401.206C43.3236 399.369 42.8217 397.312 41.2666 396.319C40.2946 395.799 39.2029 395.544 38.1012 395.58C36.2703 395.514 34.2409 395.696 32.978 397.036C31.4173 398.691 31.8254 401.499 33.1765 403.336C34.5276 405.173 36.5901 406.32 38.4872 407.589C39.9265 408.554 41.3879 409.68 42.2758 411.208C42.3926 411.412 42.4869 411.628 42.557 411.853H54.0442C56.6262 410.549 59.0209 408.903 61.1637 406.96Z" fill="#FF962B"/>
<g opacity="0.4">
<path opacity="0.4" d="M341.923 389.385C351.864 389.385 359.923 388.021 359.923 386.34C359.923 384.658 351.864 383.295 341.923 383.295C331.982 383.295 323.923 384.658 323.923 386.34C323.923 388.021 331.982 389.385 341.923 389.385Z" fill="#FF962B"/>
<path opacity="0.4" d="M349.362 381.358C350.183 380.689 350.783 379.787 351.083 378.771C351.303 377.74 350.862 376.504 349.881 376.129C348.778 375.71 347.603 376.471 346.71 377.232C345.816 377.993 344.796 378.887 343.627 378.722C344.231 378.176 344.683 377.482 344.938 376.708C345.192 375.934 345.24 375.107 345.077 374.308C345.027 373.981 344.888 373.674 344.675 373.42C344.063 372.764 342.954 373.045 342.226 373.558C339.899 375.213 339.248 378.363 339.232 381.209C339 380.183 339.199 379.113 339.193 378.06C339.188 377.006 338.895 375.853 338.007 375.268C337.453 374.974 336.831 374.829 336.204 374.849C335.156 374.81 333.998 374.915 333.276 375.677C332.388 376.631 332.62 378.225 333.392 379.273C334.164 380.321 335.338 380.978 336.425 381.7C337.29 382.219 338.028 382.924 338.586 383.764C338.653 383.881 338.707 384.005 338.746 384.133H345.309C346.779 383.396 348.143 382.462 349.362 381.358Z" fill="#FF962B"/>
</g>
<g opacity="0.4">
<path opacity="0.4" d="M66.2317 355.167C76.1728 355.167 84.2317 353.803 84.2317 352.122C84.2317 350.44 76.1728 349.077 66.2317 349.077C56.2906 349.077 48.2317 350.44 48.2317 352.122C48.2317 353.803 56.2906 355.167 66.2317 355.167Z" fill="#FF962B"/>
<path opacity="0.4" d="M73.6765 347.14C74.499 346.471 75.0974 345.567 75.3916 344.548C75.6122 343.522 75.1765 342.286 74.1894 341.911C73.0864 341.492 71.9118 342.253 71.0239 343.014C70.1361 343.775 69.1048 344.669 67.9412 344.504C68.5436 343.956 68.9938 343.262 69.248 342.488C69.5022 341.715 69.5516 340.889 69.3916 340.09C69.3394 339.762 69.2005 339.453 68.989 339.197C68.3769 338.546 67.2684 338.827 66.5349 339.34C64.2077 340.995 63.557 344.139 63.546 346.986C63.3089 345.96 63.5074 344.89 63.5019 343.836C63.4963 342.782 63.2096 341.63 62.3217 341.078C61.767 340.779 61.1428 340.632 60.5129 340.653C59.4706 340.614 58.307 340.719 57.5901 341.486C56.7022 342.44 56.9339 344.035 57.7059 345.083C58.478 346.131 59.6526 346.782 60.7335 347.51C61.6008 348.025 62.34 348.731 62.8952 349.573C62.9613 349.691 63.0167 349.815 63.0607 349.943H69.6177C71.0904 349.195 72.4557 348.253 73.6765 347.14Z" fill="#FF962B"/>
</g>
<path d="M159.965 42.5037H131.791V70.6869H159.965V42.5037Z" fill="#D6D8E0"/>
<path d="M239.785 44.5172H180.755V49.8846H239.785V44.5172Z" fill="#D6D8E0"/>
<path d="M278.018 53.9116H180.755V59.279H278.018V53.9116Z" fill="#D6D8E0"/>
<path d="M278.018 63.306H180.755V68.6734H278.018V63.306Z" fill="#D6D8E0"/>
<path d="M160.18 94.1702H132.005V122.353H160.18V94.1702Z" fill="#D6D8E0"/>
<path d="M240 96.1836H180.971V101.551H240V96.1836Z" fill="#D6D8E0"/>
<path d="M278.234 105.578H180.971V110.945H278.234V105.578Z" fill="#D6D8E0"/>
<path d="M278.234 114.967H180.971V120.334H278.234V114.967Z" fill="#D6D8E0"/>
<path d="M160.395 145.837H132.221V174.02H160.395V145.837Z" fill="#D6D8E0"/>
<path d="M240.221 147.845H181.191V153.212H240.221V147.845Z" fill="#D6D8E0"/>
<path d="M278.454 157.239H181.191V162.606H278.454V157.239Z" fill="#D6D8E0"/>
<path d="M278.454 166.633H181.191V172.001H278.454V166.633Z" fill="#D6D8E0"/>
<path d="M160.61 197.497H132.436V225.681H160.61V197.497Z" fill="#D6D8E0"/>
<path d="M240.436 199.511H181.406V204.878H240.436V199.511Z" fill="#D6D8E0"/>
<path d="M278.669 208.905H181.406V214.273H278.669V208.905Z" fill="#D6D8E0"/>
<path d="M278.669 218.3H181.406V223.667H278.669V218.3Z" fill="#D6D8E0"/>
<path d="M160.831 249.164H132.656V277.347H160.831V249.164Z" fill="#D6D8E0"/>
<path d="M240.651 251.177H181.621V256.545H240.651V251.177Z" fill="#D6D8E0"/>
<path d="M278.884 260.572H181.621V265.939H278.884V260.572Z" fill="#D6D8E0"/>
<path d="M278.884 269.966H181.621V275.334H278.884V269.966Z" fill="#D6D8E0"/>
<path d="M161.046 300.83H132.871V329.014H161.046V300.83Z" fill="#D6D8E0"/>
<path d="M240.866 302.844H181.836V308.211H240.866V302.844Z" fill="#D6D8E0"/>
<path d="M279.099 312.238H181.836V317.606H279.099V312.238Z" fill="#D6D8E0"/>
<path d="M279.099 321.633H181.836V327H279.099V321.633Z" fill="#D6D8E0"/>
<path d="M161.261 352.497H133.086V380.68H161.261V352.497Z" fill="#D6D8E0"/>
<path d="M241.081 354.51H182.052V359.878H241.081V354.51Z" fill="#D6D8E0"/>
<path d="M279.314 363.905H182.052V369.272H279.314V363.905Z" fill="#D6D8E0"/>
<path d="M279.314 373.299H182.052V378.666H279.314V373.299Z" fill="#D6D8E0"/>
<path d="M325.621 127.484H85.4834V187.198H325.621V127.484Z" fill="url(#paint1_linear)"/>
<path d="M324.948 128.83H86.8235V185.863H324.948V128.83Z" fill="white"/>
<path d="M160.947 143.255H132.772V171.438H160.947V143.255Z" fill="#FF962B"/>
<g opacity="0.5">
<path opacity="0.5" d="M240.772 145.268H181.743V150.636H240.772V145.268Z" fill="#FF962B"/>
<path opacity="0.5" d="M279.006 154.663H181.743V160.03H279.006V154.663Z" fill="#FF962B"/>
<path opacity="0.5" d="M279.006 164.057H181.743V169.425H279.006V164.057Z" fill="#FF962B"/>
</g>
<path d="M171.055 179.608C169.555 178.124 167.062 177.633 165.259 178.725C163.858 179.569 163.086 181.141 162.381 182.625C161.349 184.832 159.838 186.895 159.375 189.278C158.101 195.848 152.873 200.951 150.778 207.3C150.028 209.567 149.675 212 148.489 214.069C147.929 214.974 147.302 215.837 146.614 216.65C143.901 220.074 141.501 223.735 139.445 227.589C138.254 227.821 137.195 228.831 136.18 229.619C134.88 230.63 133.374 231.344 131.768 231.71C131.122 231.786 130.502 232.013 129.96 232.372C129.199 233.006 129.094 234.148 128.476 234.915C128.027 235.418 127.458 235.797 126.822 236.018C126.822 235.825 126.794 235.632 126.789 235.434C126.761 234.413 126.744 233.387 126.744 232.361C128.523 230.266 129.496 227.606 129.49 224.858C129.484 222.11 128.499 219.454 126.711 217.367C126.755 215.77 126.967 214.182 127.346 212.629C127.539 211.873 127.511 210.946 126.899 210.455C126.596 210.218 126.204 210.13 125.879 209.904C125.42 209.516 125.045 209.039 124.776 208.503C123.959 207.345 122.756 206.516 121.384 206.165C120.011 205.814 118.559 205.964 117.287 206.588C115.296 207.637 114.088 209.733 112.324 211.156C111.419 211.884 110.377 212.43 109.472 213.164C107.662 214.744 106.376 216.837 105.783 219.166C105.203 221.485 104.867 223.859 104.779 226.249C104.685 226.966 104.713 227.693 104.862 228.4C105.04 228.992 105.314 229.551 105.673 230.055C107.353 232.791 109.715 235.043 112.528 236.592C112.539 236.733 112.539 236.875 112.528 237.017C112.528 237.237 112.456 237.453 112.406 237.673L112.086 237.585C110.906 237.32 109.632 237.353 108.574 236.763C106.765 235.748 106.219 233.271 104.487 232.135C104.34 232.039 104.185 231.956 104.024 231.887C103.902 228.749 103.303 225.648 102.248 222.691C101.741 221.279 101.118 219.839 101.195 218.333C101.261 216.937 101.928 215.652 102.524 214.389C104.603 210.031 106.059 205.408 107.487 200.802C108.403 197.908 109.322 195.011 110.244 192.113C111.143 191.447 111.956 190.672 112.665 189.808C114.137 188.094 115.108 186.008 115.472 183.778C115.647 182.666 115.6 181.529 115.334 180.435C115.068 179.34 114.589 178.309 113.923 177.401C113.629 176.967 113.245 176.601 112.798 176.327C112.351 176.053 111.851 175.878 111.331 175.813C110.874 175.823 110.423 175.925 110.007 176.115C109.591 176.305 109.217 176.577 108.91 176.916C107.996 177.959 107.292 179.169 106.836 180.479C105.932 182.614 105.017 184.832 105.105 187.149C105.176 189.068 105.893 191.214 104.774 192.775C101.107 197.889 98.3382 203.77 95.432 209.363C94.6974 210.699 94.0669 212.09 93.5459 213.523C92.8433 215.846 92.5102 218.266 92.5588 220.694C92.5312 225.245 93.1544 229.774 93.772 234.286C94.0533 236.322 94.4118 238.484 95.3768 240.244C94.7446 242.425 94.4125 244.681 94.3897 246.952C94.3641 247.476 94.4467 248 94.6323 248.491C94.9569 249.062 95.368 249.579 95.8511 250.024C96.4976 250.759 96.9796 251.623 97.265 252.56C97.5503 253.496 97.6323 254.482 97.5055 255.453C97.3438 257.28 97.51 259.122 97.9963 260.892C99.0992 265.79 100.202 270.683 101.085 275.62C101.294 276.539 101.365 277.483 101.294 278.423C101.123 279.758 100.384 281.027 100.544 282.367C100.702 282.988 100.82 283.618 100.897 284.254C100.861 284.739 100.749 285.215 100.566 285.666C99.3088 289.323 95.9283 297.708 95.9669 301.581L96.8492 301.371C95.9614 306.396 93.8823 311.201 92.7904 316.21C92.0331 319.859 91.689 323.583 91.7647 327.309C91.8374 328.982 91.8079 330.659 91.6764 332.329C91.5055 333.813 91.125 335.264 90.9154 336.742C90.6782 338.724 90.5897 340.721 90.6507 342.716C90.5933 345.852 90.7777 348.987 91.2022 352.094C92.0459 357.39 90.568 362.652 90.1654 367.998C89.9614 371.737 89.5379 375.462 88.897 379.152C88.5937 380.708 88.2132 382.252 88.0036 383.824C87.386 388.491 88.2849 393.301 87.3143 397.908C86.8566 400.065 86.0404 402.486 87.2426 404.329C87.6231 404.908 88.1691 405.36 88.5827 405.917C88.8093 406.181 88.9639 406.499 89.0315 406.84C89.0991 407.181 89.0775 407.534 88.9687 407.865C88.7316 408.372 88.1801 408.703 88.0423 409.244C87.8217 410.093 88.7095 410.788 89.5036 411.152L89.7298 411.241C89.6779 411.531 89.6895 411.83 89.7638 412.115C89.838 412.401 89.9731 412.667 90.1599 412.896C90.6318 413.341 91.2178 413.646 91.8529 413.778L102.265 416.934C104.586 417.64 107.112 418.335 109.434 417.761C109.486 418.092 109.629 418.401 109.847 418.655C110.319 419.1 110.905 419.405 111.54 419.537L121.875 422.671C124.533 423.476 127.45 424.27 130.004 423.178C130.735 422.877 131.377 422.392 131.868 421.771C132.273 421.175 132.543 420.497 132.657 419.785C132.771 419.073 132.728 418.344 132.529 417.651C132.4 416.945 132.048 416.299 131.526 415.808C130.818 415.316 129.983 415.042 129.121 415.019C128.386 414.997 127.666 414.809 127.015 414.468C126.818 414.34 126.654 414.168 126.535 413.966C127.13 413.377 127.708 412.767 128.267 412.134C127.814 411.98 127.654 411.329 127.61 410.855C126.954 403.827 129.601 396.959 130.605 389.975C131.112 386.471 131.201 382.919 130.869 379.395C130.748 378.065 130.566 376.741 130.511 375.406C130.252 368.456 133.572 361.77 133.456 354.814C133.401 351.559 135.11 348.348 135.943 345.199C136.671 342.407 136.693 339.484 136.71 336.593L136.842 313.832C136.842 310.754 136.842 307.604 135.86 304.697C135.365 303.08 135.229 301.374 135.463 299.699C138.27 298.458 140.928 296.621 143.928 296.941C144.728 294.817 143.779 287.74 143.029 285.594C140.081 277.151 139.509 268.06 141.375 259.314C142.053 256.175 141.121 252.838 141.877 249.71C142.016 248.976 142.295 248.275 142.699 247.647C142.903 247.334 143.184 247.078 143.515 246.903C143.846 246.728 144.216 246.641 144.59 246.648C144.59 244.734 144.551 242.787 144.425 240.845C145.643 239.85 146.681 238.654 147.496 237.309C149.151 234.551 150.094 231.445 151.235 228.444C153.259 223.149 156.022 218.178 158.344 212.999C160.665 207.819 160.892 202.153 162.755 196.791C163.782 193.838 165.905 191.393 168.684 189.962C169.787 189.41 170.961 189.013 171.761 188.109C172.366 187.354 172.738 186.44 172.831 185.477C173.003 184.428 172.932 183.354 172.624 182.336C172.317 181.319 171.78 180.385 171.055 179.608ZM106.533 407.506C106.759 407.258 106.98 407.01 107.189 406.739C106.494 406.629 105.645 406.121 105.629 405.415C105.678 404.708 105.831 404.011 106.081 403.347C106.407 402.149 106.46 400.894 106.235 399.673C106.081 398.818 105.794 398.018 105.618 397.146C105.449 396.201 105.339 395.247 105.287 394.289C104.989 390.85 104.316 387.453 103.279 384.161C102.281 380.967 103.649 377.734 104.002 374.408C104.173 372.83 104.096 371.203 104.647 369.719C104.972 368.836 105.507 368.064 105.833 367.17C106.588 365.124 106.142 362.845 105.678 360.711C108.943 354.792 110.024 347.731 111.254 341.067C111.945 337.327 112.636 333.588 113.327 329.852C113.63 328.197 113.967 326.454 114.982 325.119C116.056 330.07 116.478 335.14 116.239 340.201C116.112 341.67 116.13 343.148 116.294 344.614C116.548 346.219 117.215 347.736 117.601 349.314C118.461 352.795 117.96 356.452 118.153 360.032C118.224 361.477 118.412 362.923 118.472 364.368C118.743 370.761 116.603 376.978 114.491 383.019C113.195 386.72 112.908 390.929 112.285 394.807C111.7 398.52 111.121 402.238 110.824 405.984C110.735 407.125 110.664 408.3 110.526 409.459C110.171 409.38 109.812 409.323 109.45 409.288C108.715 409.266 107.995 409.077 107.344 408.736C106.954 408.419 106.671 407.99 106.533 407.506Z" fill="url(#paint2_linear)"/>
<path d="M129.132 415.075C129.992 415.099 130.827 415.371 131.537 415.858C132.058 416.346 132.41 416.987 132.54 417.689C132.738 418.379 132.782 419.104 132.667 419.813C132.553 420.521 132.284 421.196 131.879 421.788C131.387 422.404 130.745 422.883 130.015 423.178C127.461 424.281 124.544 423.482 121.886 422.682L111.474 419.543C110.839 419.413 110.253 419.109 109.781 418.666C109.495 418.28 109.337 417.815 109.329 417.335C109.321 416.855 109.464 416.385 109.737 415.99C110.297 415.212 111.06 414.604 111.943 414.231C115.186 412.653 118.836 412.289 122.421 412.223C123.744 412.195 125.046 411.908 125.945 412.929C126.419 413.48 126.336 414.065 127.048 414.534C127.692 414.871 128.405 415.055 129.132 415.075Z" fill="#3F3D56"/>
<path d="M109.461 409.343C110.322 409.362 111.157 409.633 111.866 410.121C112.384 410.611 112.735 411.252 112.869 411.952C113.068 412.642 113.111 413.367 112.997 414.076C112.883 414.784 112.613 415.459 112.208 416.051C111.717 416.669 111.075 417.149 110.344 417.447C107.79 418.55 104.873 417.745 102.215 416.945L91.8033 413.806C91.1678 413.678 90.5811 413.374 90.1103 412.929C89.8241 412.543 89.6659 412.078 89.658 411.598C89.6501 411.118 89.7928 410.648 90.0661 410.253C90.6249 409.474 91.3884 408.865 92.272 408.494C95.5147 406.916 99.1599 406.552 102.722 406.486C104.04 406.486 105.347 406.171 106.246 407.192C106.721 407.743 106.638 408.334 107.349 408.797C108.003 409.137 108.725 409.324 109.461 409.343Z" fill="#3F3D56"/>
<path d="M118.505 296.318C112.372 295.701 106.201 295.528 100.042 295.799C99.6356 295.794 99.2311 295.858 98.8455 295.987C97.4889 296.539 97.2794 298.315 97.147 299.771C96.6286 305.657 94.0312 311.146 92.7352 316.922C91.9772 320.549 91.633 324.25 91.7095 327.954C91.7815 329.61 91.7521 331.268 91.6213 332.919C91.4503 334.398 91.0698 335.837 90.8602 337.332C90.6231 339.301 90.5346 341.285 90.5955 343.268C90.5387 346.379 90.7231 349.491 91.147 352.574C91.9908 357.837 90.5128 363.055 90.1102 368.373C89.9059 372.089 89.4824 375.789 88.8419 379.455C88.5386 381 88.158 382.533 87.9485 384.095C87.3308 388.734 88.2297 393.517 87.2591 398.09C86.8014 400.23 85.9852 402.635 87.1875 404.467C87.568 405.046 88.1139 405.493 88.5275 406.044C88.7536 406.306 88.908 406.622 88.9757 406.962C89.0433 407.301 89.0219 407.652 88.9136 407.981C88.6764 408.483 88.1249 408.813 87.9871 409.349C87.7665 410.193 88.6544 410.888 89.4485 411.246C95.4319 413.944 103.147 412.041 107.184 406.861C106.489 406.75 105.64 406.248 105.623 405.548C105.673 404.844 105.825 404.15 106.075 403.49C106.402 402.3 106.455 401.052 106.23 399.838C106.075 398.994 105.789 398.183 105.612 397.328C105.444 396.391 105.333 395.444 105.281 394.493C104.984 391.075 104.311 387.701 103.274 384.431C102.276 381.259 103.643 378.049 103.996 374.739C104.167 373.178 104.09 371.556 104.641 370.083C104.967 369.206 105.502 368.428 105.827 367.551C106.583 365.515 106.136 363.259 105.673 361.135C108.937 355.249 110.018 348.238 111.248 341.618C111.939 337.904 112.63 334.19 113.322 330.475C113.625 328.82 113.961 327.105 114.976 325.775C116.05 330.695 116.473 335.734 116.233 340.763C116.108 342.212 116.127 343.67 116.289 345.116C116.542 346.71 117.21 348.216 117.596 349.788C118.456 353.241 117.954 356.877 118.147 360.435C118.219 361.869 118.406 363.303 118.467 364.743C118.737 371.092 116.597 377.271 114.485 383.267C113.189 386.947 112.903 391.128 112.279 394.978C111.695 398.669 111.116 402.359 110.818 406.083C110.548 409.503 110.432 413.205 108.303 415.891C110.244 417.154 112.257 418.44 114.529 418.875C117.185 419.29 119.901 418.765 122.211 417.391C124.504 416.016 126.554 414.272 128.278 412.228C127.825 412.074 127.665 411.423 127.621 410.954C126.965 403.976 129.612 397.163 130.616 390.212C131.123 386.731 131.212 383.201 130.88 379.698C130.759 378.38 130.577 377.067 130.522 375.743C130.263 368.836 133.583 362.189 133.467 355.283C133.412 352.05 135.121 348.856 135.954 345.728C136.682 342.97 136.704 340.052 136.721 337.183L136.853 314.566C136.853 311.505 136.853 308.377 135.871 305.486C134.658 302.016 136.042 298.022 136.252 294.354C130.522 296.165 124.492 296.832 118.505 296.318Z" fill="#3F3D56"/>
<path d="M138.171 231.34C140.489 226.599 143.32 222.126 146.614 218.002C147.301 217.195 147.927 216.34 148.489 215.442C149.675 213.39 150.028 210.968 150.778 208.718C152.873 202.407 158.101 197.337 159.375 190.812C159.838 188.445 161.349 186.399 162.381 184.192C163.086 182.714 163.859 181.158 165.259 180.33C167.063 179.227 169.555 179.74 171.055 181.213C171.777 181.982 172.312 182.907 172.619 183.916C172.926 184.926 172.997 185.992 172.825 187.033C172.736 187.991 172.363 188.901 171.756 189.648C170.956 190.547 169.759 190.955 168.678 191.496C165.902 192.907 163.779 195.335 162.75 198.275C160.908 203.604 160.677 209.242 158.338 214.378C156 219.513 153.254 224.451 151.23 229.708C150.088 232.692 149.167 235.776 147.491 238.534C145.814 241.292 143.178 243.603 140.013 244.017C140.017 242.024 139.705 240.043 139.086 238.148C138.419 235.958 137.167 233.37 138.171 231.34Z" fill="#A0616A"/>
<path d="M104.024 235.456C104.165 231.556 103.558 227.665 102.237 223.993C101.73 222.586 101.107 221.157 101.184 219.662C101.25 218.278 101.917 216.998 102.513 215.746C104.592 211.415 106.048 206.82 107.476 202.242L110.233 193.614C111.13 192.952 111.943 192.183 112.654 191.325C114.123 189.624 115.095 187.551 115.461 185.334C115.636 184.227 115.589 183.097 115.323 182.009C115.057 180.921 114.577 179.897 113.912 178.996C113.617 178.564 113.233 178.2 112.786 177.929C112.339 177.657 111.839 177.485 111.32 177.423C110.862 177.431 110.411 177.533 109.995 177.723C109.578 177.913 109.205 178.186 108.899 178.527C107.985 179.562 107.281 180.765 106.825 182.068C105.921 184.186 105.006 186.393 105.094 188.688C105.165 190.596 105.882 192.726 104.763 194.276C101.096 199.357 98.3272 205.198 95.4209 210.753C94.6865 212.08 94.056 213.461 93.5349 214.885C92.8314 217.197 92.4982 219.607 92.5478 222.023C92.5202 226.547 93.1434 231.043 93.761 235.527C94.147 238.33 94.6654 241.386 96.7886 243.25C99 240.442 101.217 237.673 104.024 235.456Z" fill="#A0616A"/>
<path d="M118.059 237.613C124.379 237.613 129.502 232.488 129.502 226.166C129.502 219.844 124.379 214.72 118.059 214.72C111.739 214.72 106.616 219.844 106.616 226.166C106.616 232.488 111.739 237.613 118.059 237.613Z" fill="#A0616A"/>
<path d="M112.5 238.219C112.224 240.294 111.116 242.142 110.035 243.929C109.379 245.032 108.551 246.207 107.278 246.328C110.59 248.071 114.071 249.472 117.667 250.51C118.892 250.92 120.175 251.127 121.467 251.122C122.56 251.041 123.63 250.766 124.627 250.311C126.809 249.355 128.744 247.914 130.286 246.098C131.828 244.282 132.937 242.138 133.528 239.83C132.105 239.868 130.682 239.759 129.281 239.505C128.498 239.361 127.654 239.13 127.197 238.484C126.879 237.922 126.729 237.281 126.767 236.636C126.711 234.728 126.711 232.819 126.767 230.91C123.955 230.729 121.135 231.075 118.45 231.931C117.347 232.289 116.244 232.725 115.114 233.006C114.419 233.177 112.506 233.006 111.993 233.409C111.215 234.021 112.704 236.813 112.5 238.219Z" fill="#A0616A"/>
<path d="M117.546 245.176C117.419 243.672 116.822 242.246 115.84 241.099C114.859 239.953 113.542 239.144 112.075 238.788C110.895 238.528 109.621 238.556 108.563 237.971C106.754 236.962 106.208 234.501 104.476 233.37C102.745 232.24 100.274 232.869 98.7629 234.303C97.2518 235.737 96.4853 237.767 95.8677 239.753C94.9429 242.445 94.4424 245.264 94.3842 248.11C94.3586 248.633 94.4412 249.155 94.6268 249.644C94.953 250.212 95.364 250.728 95.8456 251.172C96.4913 251.898 96.9733 252.755 97.2587 253.684C97.5442 254.613 97.6265 255.592 97.5 256.556C97.3384 258.375 97.5046 260.208 97.9908 261.967C99.0938 266.827 100.197 271.693 101.079 276.597C101.286 277.501 101.356 278.43 101.289 279.355C101.118 280.679 100.379 281.942 100.539 283.266C100.697 283.885 100.814 284.513 100.892 285.147C100.856 285.627 100.744 286.098 100.561 286.543C99.3033 290.184 95.9228 298.513 95.9614 302.358C101.835 300.852 110.493 300.516 116.553 300.494C118.223 300.471 119.894 300.544 121.555 300.715C125.542 301.139 129.623 302.303 133.489 301.228C137.074 300.229 140.256 297.366 143.967 297.73C144.767 295.617 143.818 288.584 143.068 286.455C140.12 278.071 139.547 269.035 141.414 260.346C142.092 257.223 141.16 253.913 141.915 250.808C142.053 250.077 142.332 249.38 142.737 248.756C142.943 248.443 143.224 248.189 143.555 248.015C143.886 247.841 144.255 247.754 144.629 247.763C144.697 242.776 144.235 237.796 143.25 232.907C142.881 231.169 142.114 229.117 140.366 228.819C138.789 228.555 137.46 229.884 136.197 230.866C134.893 231.868 133.388 232.575 131.785 232.94C131.139 233.014 130.519 233.239 129.976 233.597C129.215 234.226 129.11 235.362 128.493 236.129C127.39 237.502 124.925 237.381 124.142 238.964C123.965 239.436 123.825 239.921 123.722 240.415C123.353 241.353 122.723 242.166 121.908 242.759C120.675 243.912 119.177 244.742 117.546 245.176Z" fill="#FF962B"/>
<path d="M127.357 213.997C127.55 213.241 127.522 212.342 126.91 211.835C126.607 211.597 126.215 211.509 125.89 211.283C125.431 210.897 125.056 210.423 124.787 209.887C123.962 208.735 122.755 207.912 121.381 207.565C120.006 207.219 118.554 207.371 117.281 207.995C115.29 209.038 114.083 211.123 112.318 212.535C111.414 213.263 110.371 213.804 109.467 214.527C107.659 216.095 106.372 218.177 105.778 220.495C105.199 222.802 104.865 225.163 104.779 227.54C104.685 228.253 104.713 228.976 104.862 229.68C105.042 230.263 105.316 230.813 105.673 231.307C107.487 234.066 109.892 236.576 112.897 237.993C115.903 239.411 119.559 239.648 122.526 238.164C122.823 238.039 123.079 237.833 123.265 237.568C123.435 237.166 123.473 236.72 123.375 236.294C123.218 234.61 123.553 232.916 124.34 231.418C124.892 230.314 125.713 229.366 126.16 228.218C126.565 226.939 126.741 225.598 126.678 224.257C126.722 220.799 126.485 217.34 127.357 213.997Z" fill="#2D293D"/>
<path d="M160.831 143.591H132.656V171.775H160.831V143.591Z" fill="#FF962B"/>
<path d="M150.551 167.599C150.143 168.386 149.466 169.001 148.643 169.331C148.157 169.509 147.644 169.606 147.127 169.618C146.567 169.659 146.005 169.589 145.472 169.414C144.763 169.134 144.154 168.648 143.724 168.018C143.3 167.388 142.959 166.705 142.709 165.988C142.542 165.63 142.471 165.234 142.505 164.84C142.721 164.814 142.93 164.746 143.119 164.639C143.308 164.532 143.474 164.388 143.608 164.217C143.688 164.045 143.731 163.858 143.736 163.668C143.741 163.479 143.707 163.29 143.636 163.114C143.603 163.004 143.57 162.899 143.531 162.799C143.448 162.557 143.162 162.099 143.36 161.895C143.559 161.691 144.022 161.696 144.204 161.613C144.743 161.291 145.319 161.034 145.919 160.847C146.463 160.774 147.016 160.81 147.546 160.951C147.618 160.963 147.688 160.99 147.75 161.029C147.82 161.086 147.871 161.163 147.899 161.249C148.053 161.624 148.141 162.038 148.263 162.424C148.369 162.829 148.578 163.2 148.869 163.5C149.121 163.714 149.406 163.885 149.713 164.008L150.452 164.344C150.582 164.396 150.7 164.473 150.799 164.57C150.894 164.704 150.951 164.86 150.965 165.023C151.102 165.903 150.957 166.805 150.551 167.599Z" fill="#A0616A"/>
<path opacity="0.1" d="M148.257 162.441C147.67 163.051 146.898 163.449 146.061 163.574C145.224 163.698 144.37 163.543 143.631 163.13C143.597 163.02 143.564 162.915 143.526 162.816C143.443 162.573 143.156 162.115 143.355 161.911C143.553 161.707 144.017 161.713 144.199 161.63C144.738 161.308 145.314 161.05 145.914 160.863C146.458 160.791 147.01 160.826 147.54 160.968C147.613 160.98 147.682 161.006 147.745 161.045C147.814 161.103 147.866 161.18 147.893 161.266C148.048 161.658 148.136 162.055 148.257 162.441Z" fill="black"/>
<path d="M145.5 163.45C147.614 163.45 149.327 161.736 149.327 159.622C149.327 157.508 147.614 155.794 145.5 155.794C143.386 155.794 141.673 157.508 141.673 159.622C141.673 161.736 143.386 163.45 145.5 163.45Z" fill="#A0616A"/>
<path d="M157.108 171.769H139.097C138.546 170.539 138.05 169.303 137.493 168.073C137.552 167.78 137.662 167.5 137.818 167.246C137.898 167.121 138.007 167.018 138.136 166.946C138.265 166.874 138.409 166.835 138.557 166.832C138.717 166.832 138.899 166.893 139.015 166.777C139.131 166.661 139.092 166.567 139.175 166.49C139.257 166.413 139.456 166.413 139.61 166.424C139.776 166.429 139.94 166.393 140.089 166.319C140.237 166.245 140.364 166.135 140.46 165.999C140.519 165.896 140.591 165.802 140.675 165.718C140.82 165.647 140.977 165.606 141.138 165.596C141.585 165.497 141.849 165.045 142.186 164.763C142.267 164.672 142.372 164.606 142.49 164.574C142.607 164.542 142.731 164.544 142.847 164.581C142.901 164.609 142.949 164.649 142.985 164.697C143.076 164.836 143.138 164.992 143.167 165.155C143.367 166.071 143.875 166.891 144.607 167.477C144.995 167.771 145.445 167.974 145.922 168.072C146.4 168.17 146.893 168.159 147.366 168.041C147.838 167.923 148.279 167.701 148.655 167.39C149.03 167.08 149.332 166.689 149.537 166.247C149.803 165.58 149.956 164.874 149.989 164.156C149.989 164.118 149.989 164.096 149.989 164.063C150.213 164.007 150.447 164.001 150.674 164.046C150.901 164.091 151.115 164.185 151.301 164.322C151.668 164.602 152.059 164.848 152.471 165.056C152.961 165.249 153.574 165.249 153.91 165.607C154.053 165.751 154.153 165.949 154.335 166.038C154.448 166.082 154.567 166.11 154.688 166.12C154.996 166.203 155.28 166.356 155.52 166.566C155.76 166.777 155.949 167.039 156.072 167.334C156.471 168.219 156.731 169.161 156.844 170.125L157.108 171.769Z" fill="#F86D70"/>
<path d="M142.859 153.411C142.592 153.626 142.366 153.888 142.191 154.183C141.863 154.725 141.404 155.176 140.857 155.496C140.627 155.576 140.418 155.706 140.245 155.876C140.159 156.006 140.105 156.153 140.085 156.307C139.973 156.842 139.915 157.387 139.914 157.934C139.893 158.209 139.939 158.485 140.046 158.739C140.156 158.971 140.366 159.17 140.404 159.423C140.413 159.624 140.39 159.825 140.338 160.019C140.312 160.121 140.318 160.228 140.355 160.327C140.391 160.425 140.456 160.51 140.542 160.571C140.642 160.606 140.746 160.63 140.851 160.643C141.403 160.764 141.59 161.415 141.673 161.95C141.86 161.95 141.943 161.724 141.987 161.547L142.539 158.982C142.605 158.706 142.704 158.381 142.985 158.287C143.178 158.246 143.377 158.246 143.57 158.287C144.331 158.353 144.971 157.763 145.715 157.598C145.955 157.552 146.2 157.538 146.443 157.553C147.028 157.553 147.712 157.824 147.838 158.37C147.838 158.458 147.871 158.568 147.954 158.613C148.039 158.637 148.129 158.637 148.213 158.613C148.583 158.574 148.803 158.993 148.914 159.335L149.3 160.587C149.36 160.775 149.46 161.001 149.664 161.023C149.757 161.023 149.847 160.988 149.917 160.926C149.987 160.864 150.032 160.779 150.044 160.687C150.052 160.5 150.026 160.313 149.967 160.135C149.785 159.319 150.066 158.48 150.237 157.658C150.408 156.836 150.436 155.893 149.862 155.259C149.653 155.032 149.377 154.861 149.184 154.619C148.991 154.376 148.903 154.117 148.715 153.89C147.966 153.233 147.032 152.825 146.041 152.721C144.935 152.623 143.825 152.864 142.859 153.411Z" fill="#3F3D56"/>
<g opacity="0.1">
<path opacity="0.1" d="M149.686 160.427C149.481 160.427 149.382 160.179 149.322 159.992L148.936 158.739C148.825 158.397 148.605 157.978 148.235 158.011C148.151 158.036 148.061 158.036 147.976 158.011C147.893 157.967 147.882 157.862 147.86 157.768C147.733 157.217 147.05 156.98 146.465 156.952C146.221 156.935 145.976 156.952 145.737 157.002C144.993 157.162 144.353 157.752 143.592 157.686C143.399 157.65 143.2 157.65 143.007 157.686C142.726 157.785 142.627 158.105 142.561 158.386C142.368 159.241 142.18 160.096 142.009 160.946C141.965 161.122 141.882 161.338 141.695 161.349C141.612 160.797 141.425 160.163 140.873 160.041C140.767 160.032 140.663 160.008 140.564 159.97C140.491 159.93 140.434 159.865 140.404 159.787C140.404 159.865 140.371 159.947 140.36 160.025C140.334 160.126 140.34 160.234 140.376 160.332C140.413 160.431 140.478 160.516 140.564 160.576C140.664 160.612 140.768 160.636 140.873 160.648C141.425 160.769 141.612 161.42 141.695 161.955C141.882 161.955 141.965 161.729 142.009 161.553C142.202 160.698 142.39 159.843 142.561 158.988C142.627 158.712 142.726 158.386 143.007 158.293C143.2 158.251 143.399 158.251 143.592 158.293C144.353 158.359 144.993 157.768 145.737 157.603C145.977 157.558 146.221 157.543 146.465 157.559C147.05 157.559 147.733 157.829 147.86 158.375C147.86 158.464 147.893 158.574 147.976 158.618C148.061 158.643 148.151 158.643 148.235 158.618C148.605 158.579 148.825 158.999 148.936 159.341L149.322 160.593C149.382 160.78 149.481 161.007 149.686 161.029C149.779 161.028 149.869 160.994 149.939 160.932C150.009 160.87 150.054 160.785 150.066 160.692C150.078 160.543 150.059 160.393 150.011 160.251C149.979 160.308 149.932 160.356 149.874 160.387C149.816 160.418 149.751 160.432 149.686 160.427Z" fill="black"/>
<path opacity="0.1" d="M140.404 158.839C140.366 158.585 140.156 158.386 140.046 158.155C139.974 157.998 139.93 157.83 139.919 157.658C139.919 157.752 139.919 157.84 139.919 157.934C139.899 158.209 139.944 158.485 140.051 158.739C140.14 158.927 140.294 159.092 140.371 159.291C140.41 159.144 140.421 158.99 140.404 158.839Z" fill="black"/>
<path opacity="0.1" d="M150.259 157.068C150.04 157.783 149.934 158.527 149.945 159.274C150.017 158.732 150.122 158.194 150.259 157.664C150.351 157.259 150.383 156.842 150.353 156.428C150.336 156.643 150.304 156.857 150.259 157.068Z" fill="black"/>
</g>
<path d="M140.537 171.769H136.241C136.43 170.612 136.77 169.485 137.25 168.415C137.288 168.305 137.35 168.205 137.432 168.123C137.45 168.103 137.47 168.087 137.493 168.073C137.619 167.974 137.796 167.935 137.934 167.841C138.072 167.748 138.088 167.648 138.215 167.61C138.692 167.598 139.167 167.677 139.616 167.841C139.743 167.856 139.867 167.887 139.985 167.935C140.265 168.09 140.474 168.347 140.57 168.652C140.934 169.64 140.658 170.71 140.537 171.769Z" fill="#F86D70"/>
</g>
<defs>
<linearGradient id="paint0_linear" x1="205.77" y1="409.299" x2="205.77" y2="-4.11834e-06" gradientUnits="userSpaceOnUse">
<stop stop-color="#808080" stop-opacity="0.25"/>
<stop offset="0.54" stop-color="#808080" stop-opacity="0.12"/>
<stop offset="1" stop-color="#808080" stop-opacity="0.1"/>
</linearGradient>
<linearGradient id="paint1_linear" x1="89594.5" y1="20392.3" x2="89594.5" y2="13927.6" gradientUnits="userSpaceOnUse">
<stop stop-color="#808080" stop-opacity="0.25"/>
<stop offset="0.54" stop-color="#808080" stop-opacity="0.12"/>
<stop offset="1" stop-color="#808080" stop-opacity="0.1"/>
</linearGradient>
<linearGradient id="paint2_linear" x1="36074.8" y1="151231" x2="49586.1" y2="151231" gradientUnits="userSpaceOnUse">
<stop stop-color="#808080" stop-opacity="0.25"/>
<stop offset="0.54" stop-color="#808080" stop-opacity="0.12"/>
<stop offset="1" stop-color="#808080" stop-opacity="0.1"/>
</linearGradient>
<clipPath id="clip0">
<rect width="375" height="423.713" fill="white"/>
</clipPath>
</defs>
</svg>
